<svg xmlns="http://www.w3.org/2000/svg" width="9.5" height="10.556" viewBox="0 0 9.5 10.556">
  <path id="path" d="M270.144,905.856a1.082,1.082,0,0,1,1.056,1.056V914.3a1.082,1.082,0,0,1-1.056,1.056h-7.389a.958.958,0,0,1-.739-.317,1.042,1.042,0,0,1-.317-.739v-7.389a1.082,1.082,0,0,1,1.056-1.056h.528V904.8h1.056v1.056h4.222V904.8h1.056v1.056Zm0,8.444v-5.805h-7.389V914.3Zm-1.056-4.75v1.056h-5.278V909.55Zm-1.583,2.111v1.056h-3.694v-1.056h5.278" transform="translate(-261.7 -904.8)" fill="#666"/>
</svg>
